<?xml version="1.0" encoding="UTF-8" standalone="no"?>
<!DOCTYPE svg PUBLIC "-//W3C//DTD SVG 1.1//EN"
 "http://www.w3.org/Graphics/SVG/1.1/DTD/svg11.dtd">
<!-- Generated by graphviz version 2.26.3 (20100126.1600)
 -->
<!-- Title: G Pages: 1 -->
<svg width="1567pt" height="1202pt"
 viewBox="0.00 0.00 1567.00 1202.00" xmlns="http://www.w3.org/2000/svg" xmlns:xlink="http://www.w3.org/1999/xlink">
<g id="graph1" class="graph" transform="scale(1 1) rotate(0) translate(4 1198)">
<title>G</title>
<polygon fill="white" stroke="white" points="-4,5 -4,-1198 1564,-1198 1564,5 -4,5"/>
<g id="graph2" class="cluster"><title>cluster_1</title>
<polygon fill="#ade6bf" stroke="#ade6bf" points="211,-8 211,-726 1523,-726 1523,-8 211,-8"/>
<text text-anchor="middle" x="265.5" y="-690.5" font-family="Times Roman,serif" font-size="35.00">Node</text>
</g>
<g id="graph3" class="cluster"><title>cluster_2</title>
<polygon fill="#b1ade6" stroke="#b1ade6" points="1215,-734 1215,-1186 1551,-1186 1551,-734 1215,-734"/>
<text text-anchor="middle" x="1356" y="-1150.5" font-family="Times Roman,serif" font-size="35.00">Web User Tools</text>
</g>
<g id="graph4" class="cluster"><title>cluster_3</title>
<polygon fill="#adc4e6" stroke="#adc4e6" points="439,-734 439,-1186 1207,-1186 1207,-734 439,-734"/>
<text text-anchor="middle" x="621" y="-1150.5" font-family="Times Roman,serif" font-size="35.00">Destktop User Tools</text>
</g>
<g id="graph5" class="cluster"><title>cluster_4</title>
<polygon fill="#7c93a0" stroke="#7c93a0" points="8,-734 8,-960 431,-960 431,-734 8,-734"/>
<text text-anchor="middle" x="219.5" y="-924.5" font-family="Times Roman,serif" font-size="35.00">Smartphone User Tools</text>
</g>
<!-- n1 -->
<g id="node1" class="node"><title>n1</title>
<a xlink:href="https://github.com/Open-UDC/open-udc/wiki/Transaction-API" xlink:title="Transaction API\nC\n50%" target="_top" >
<ellipse fill="white" stroke="#405764" stroke-width="2" cx="851" cy="-588" rx="173.241" ry="79.9031"/>
<text text-anchor="middle" x="851" y="-613.5" font-family="Times Roman,serif" font-size="30.00">Transaction API</text>
<text text-anchor="middle" x="851" y="-578.5" font-family="Times Roman,serif" font-size="30.00">C</text>
<text text-anchor="middle" x="851" y="-543.5" font-family="Times Roman,serif" font-size="30.00">50%</text>
</a>
</g>
<!-- n2 -->
<g id="node2" class="node"><title>n2</title>
<a xlink:href="https://github.com/Open-UDC/open-udc/wiki/Coin-management" xlink:title="Coin management\nC\n90%" target="_top" >
<ellipse fill="white" stroke="#405764" stroke-width="2" cx="427" cy="-367" rx="207.889" ry="79.9031"/>
<text text-anchor="middle" x="427" y="-392.5" font-family="Times Roman,serif" font-size="30.00">Coin management</text>
<text text-anchor="middle" x="427" y="-357.5" font-family="Times Roman,serif" font-size="30.00">C</text>
<text text-anchor="middle" x="427" y="-322.5" font-family="Times Roman,serif" font-size="30.00">90%</text>
</a>
</g>
<!-- n1&#45;&gt;n2 -->
<g id="edge3" class="edge"><title>n1&#45;&gt;n2</title>
<path fill="none" stroke="#405764" stroke-width="5" d="M720.584,-520.024C671.541,-494.461 615.623,-465.315 565.84,-439.367"/>
<polygon fill="#405764" stroke="#405764" points="717.467,-526.786 735.98,-528.049 724.343,-513.596 717.467,-526.786"/>
<polygon fill="#405764" stroke="#405764" points="568.426,-434.005 550.601,-431.424 562.926,-444.558 568.426,-434.005"/>
</g>
<!-- n3 -->
<g id="node3" class="node"><title>n3</title>
<a xlink:href="https://github.com/Open-UDC/open-udc/wiki/Key-Management" xlink:title="Key Management\nC\n80%" target="_top" >
<ellipse fill="white" stroke="#405764" stroke-width="2" cx="851" cy="-367" rx="197.99" ry="79.9031"/>
<text text-anchor="middle" x="851" y="-392.5" font-family="Times Roman,serif" font-size="30.00">Key Management</text>
<text text-anchor="middle" x="851" y="-357.5" font-family="Times Roman,serif" font-size="30.00">C</text>
<text text-anchor="middle" x="851" y="-322.5" font-family="Times Roman,serif" font-size="30.00">80%</text>
</a>
</g>
<!-- n1&#45;&gt;n3 -->
<g id="edge5" class="edge"><title>n1&#45;&gt;n3</title>
<path fill="none" stroke="#405764" stroke-width="5" d="M851,-490.477C851,-481.777 851,-472.968 851,-464.27"/>
<polygon fill="#405764" stroke="#405764" points="843.563,-490.901 851,-507.901 858.438,-490.902 843.563,-490.901"/>
<polygon fill="#405764" stroke="#405764" points="856.95,-464.196 851,-447.196 845.05,-464.196 856.95,-464.196"/>
</g>
<!-- n4 -->
<g id="node4" class="node"><title>n4</title>
<a xlink:href="https://github.com/Open-UDC/open-udc/wiki/Inter-node-communication-API" xlink:title="Inter&#45;node\ncommunication API\nC\n5%" target="_top" >
<ellipse fill="white" stroke="white" stroke-width="2" cx="1282" cy="-367" rx="215.167" ry="104.652"/>
<text text-anchor="middle" x="1282" y="-410" font-family="Times Roman,serif" font-size="30.00">Inter&#45;node</text>
<text text-anchor="middle" x="1282" y="-375" font-family="Times Roman,serif" font-size="30.00">communication API</text>
<text text-anchor="middle" x="1282" y="-340" font-family="Times Roman,serif" font-size="30.00">C</text>
<text text-anchor="middle" x="1282" y="-305" font-family="Times Roman,serif" font-size="30.00">5%</text>
</a>
</g>
<!-- n1&#45;&gt;n4 -->
<g id="edge7" class="edge"><title>n1&#45;&gt;n4</title>
<path fill="none" stroke="#405764" stroke-width="3" d="M982.376,-520.636C1025.42,-498.565 1073.77,-473.771 1118.87,-450.647"/>
<polygon fill="#405764" stroke="#405764" points="979.479,-515.434 967.067,-528.485 984.909,-526.023 979.479,-515.434"/>
<polygon fill="#405764" stroke="#405764" points="1121.61,-455.927 1134.03,-442.876 1116.18,-445.338 1121.61,-455.927"/>
</g>
<!-- n5 -->
<g id="node5" class="node"><title>n5</title>
<a xlink:href="https://github.com/Open-UDC/open-udc/wiki/Web-of-trust-auto-check" xlink:title="Web of trust\nauto check\nND\n0%" target="_top" >
<ellipse fill="white" stroke="white" stroke-width="2" cx="851" cy="-121" rx="142.128" ry="104.652"/>
<text text-anchor="middle" x="851" y="-164" font-family="Times Roman,serif" font-size="30.00">Web of trust</text>
<text text-anchor="middle" x="851" y="-129" font-family="Times Roman,serif" font-size="30.00">auto check</text>
<text text-anchor="middle" x="851" y="-94" font-family="Times Roman,serif" font-size="30.00">ND</text>
<text text-anchor="middle" x="851" y="-59" font-family="Times Roman,serif" font-size="30.00">0%</text>
</a>
</g>
<!-- n3&#45;&gt;n5 -->
<g id="edge11" class="edge"><title>n3&#45;&gt;n5</title>
<path fill="none" stroke="#405764" stroke-width="3" d="M851,-286.791C851,-272.783 851,-257.929 851,-243.093"/>
<polygon fill="#405764" stroke="#405764" points="856.95,-242.736 851,-225.737 845.05,-242.737 856.95,-242.736"/>
</g>
<!-- n4&#45;&gt;n4 -->
<g id="edge9" class="edge"><title>n4&#45;&gt;n4</title>
<path fill="none" stroke="#405764" stroke-width="3" d="M1501.96,-390.832C1510.24,-384.574 1515,-376.63 1515,-367 1515,-357.37 1510.24,-349.426 1501.96,-343.168"/>
<polygon fill="#405764" stroke="#405764" points="1498.97,-385.688 1486.87,-399.035 1504.65,-396.144 1498.97,-385.688"/>
<polygon fill="#405764" stroke="#405764" points="1504.65,-337.856 1486.87,-334.965 1498.97,-348.312 1504.65,-337.856"/>
</g>
<!-- u1 -->
<g id="node6" class="node"><title>u1</title>
<a xlink:href="https://github.com/Open-UDC/open-udc/wiki/Android-App" xlink:title="Android App\nJava/ND\n0%" target="_top" >
<ellipse fill="white" stroke="white" stroke-width="2" cx="283" cy="-822" rx="140.007" ry="79.9031"/>
<text text-anchor="middle" x="283" y="-847.5" font-family="Times Roman,serif" font-size="30.00">Android App</text>
<text text-anchor="middle" x="283" y="-812.5" font-family="Times Roman,serif" font-size="30.00">Java/ND</text>
<text text-anchor="middle" x="283" y="-777.5" font-family="Times Roman,serif" font-size="30.00">0%</text>
</a>
</g>
<!-- u1&#45;&gt;n1 -->
<g id="edge24" class="edge"><title>u1&#45;&gt;n1</title>
<path fill="none" stroke="#405764" stroke-width="3" d="M393.765,-754.705C407.455,-747.335 421.414,-740.25 435,-734 516.635,-696.446 610.883,-662.631 689.007,-637.023"/>
<polygon fill="#405764" stroke="#405764" points="390.489,-749.717 378.456,-763.119 396.22,-760.145 390.489,-749.717"/>
<polygon fill="#405764" stroke="#405764" points="691.096,-642.601 705.423,-631.685 687.416,-631.284 691.096,-642.601"/>
</g>
<!-- wu1 -->
<g id="node7" class="node"><title>wu1</title>
<a xlink:href="https://github.com/Open-UDC/open-udc/wiki/Web-Interface" xlink:title="Web Interface\nND\n0%" target="_top" >
<ellipse fill="white" stroke="white" stroke-width="2" cx="1383" cy="-1048" rx="160.013" ry="79.9031"/>
<text text-anchor="middle" x="1383" y="-1073.5" font-family="Times Roman,serif" font-size="30.00">Web Interface</text>
<text text-anchor="middle" x="1383" y="-1038.5" font-family="Times Roman,serif" font-size="30.00">ND</text>
<text text-anchor="middle" x="1383" y="-1003.5" font-family="Times Roman,serif" font-size="30.00">0%</text>
</a>
</g>
<!-- cgi -->
<g id="node11" class="node"><title>cgi</title>
<a xlink:href="https://github.com/Open-UDC/open-udc/wiki/Fast-CGI" xlink:title="Fast CGI\nPython/ND\n0%" target="_top" >
<ellipse fill="white" stroke="white" stroke-width="2" cx="1365" cy="-822" rx="123.951" ry="79.9031"/>
<text text-anchor="middle" x="1365" y="-847.5" font-family="Times Roman,serif" font-size="30.00">Fast CGI</text>
<text text-anchor="middle" x="1365" y="-812.5" font-family="Times Roman,serif" font-size="30.00">Python/ND</text>
<text text-anchor="middle" x="1365" y="-777.5" font-family="Times Roman,serif" font-size="30.00">0%</text>
</a>
</g>
<!-- wu1&#45;&gt;cgi -->
<g id="edge14" class="edge"><title>wu1&#45;&gt;cgi</title>
<path fill="none" stroke="#405764" stroke-width="3" d="M1375.27,-950.961C1374.44,-940.557 1373.6,-929.969 1372.77,-919.558"/>
<polygon fill="#405764" stroke="#405764" points="1369.35,-951.529 1376.63,-968.003 1381.21,-950.584 1369.35,-951.529"/>
<polygon fill="#405764" stroke="#405764" points="1378.67,-918.745 1371.39,-902.271 1366.81,-919.689 1378.67,-918.745"/>
</g>
<!-- lu1 -->
<g id="node8" class="node"><title>lu1</title>
<a xlink:href="https://github.com/Open-UDC/open-udc/wiki/Command-line-tools" xlink:title="Command line tools\nBash/C\n40%" target="_top" >
<ellipse fill="white" stroke="white" stroke-width="2" cx="976" cy="-1048" rx="222.946" ry="79.9031"/>
<text text-anchor="middle" x="976" y="-1073.5" font-family="Times Roman,serif" font-size="30.00">Command line tools</text>
<text text-anchor="middle" x="976" y="-1038.5" font-family="Times Roman,serif" font-size="30.00">Bash/C</text>
<text text-anchor="middle" x="976" y="-1003.5" font-family="Times Roman,serif" font-size="30.00">40%</text>
</a>
</g>
<!-- lu1&#45;&gt;n1 -->
<g id="edge26" class="edge"><title>lu1&#45;&gt;n1</title>
<path fill="none" stroke="#405764" stroke-width="3" d="M983.951,-950.456C985.806,-886.994 981.889,-803.431 957,-734 949.827,-713.991 939.009,-694.331 926.982,-676.241"/>
<polygon fill="#405764" stroke="#405764" points="977.992,-950.578 983.287,-967.793 989.883,-951.033 977.992,-950.578"/>
<polygon fill="#405764" stroke="#405764" points="931.724,-672.64 917.124,-662.093 921.961,-679.443 931.724,-672.64"/>
</g>
<!-- lu2 -->
<g id="node9" class="node"><title>lu2</title>
<a xlink:href="https://github.com/Open-UDC/open-udc/wiki/Library" xlink:title="Library\nPython/ND\n0%" target="_top" >
<ellipse fill="white" stroke="white" stroke-width="2" cx="824" cy="-822" rx="123.951" ry="79.9031"/>
<text text-anchor="middle" x="824" y="-847.5" font-family="Times Roman,serif" font-size="30.00">Library</text>
<text text-anchor="middle" x="824" y="-812.5" font-family="Times Roman,serif" font-size="30.00">Python/ND</text>
<text text-anchor="middle" x="824" y="-777.5" font-family="Times Roman,serif" font-size="30.00">0%</text>
</a>
</g>
<!-- lu1&#45;&gt;lu2 -->
<g id="edge19" class="edge"><title>lu1&#45;&gt;lu2</title>
<path fill="none" stroke="#405764" stroke-width="3" d="M914.022,-955.849C903.822,-940.683 893.273,-924.998 883.145,-909.939"/>
<polygon fill="#405764" stroke="#405764" points="909.266,-959.438 923.69,-970.224 919.14,-952.797 909.266,-959.438"/>
<polygon fill="#405764" stroke="#405764" points="888.013,-906.515 873.588,-895.73 878.138,-913.157 888.013,-906.515"/>
</g>
<!-- lu2&#45;&gt;n1 -->
<g id="edge28" class="edge"><title>lu2&#45;&gt;n1</title>
<path fill="none" stroke="#405764" stroke-width="3" d="M835.198,-724.953C836.721,-711.753 838.284,-698.203 839.807,-685.004"/>
<polygon fill="#405764" stroke="#405764" points="829.254,-724.555 833.216,-742.125 841.076,-725.919 829.254,-724.555"/>
<polygon fill="#405764" stroke="#405764" points="845.741,-685.482 841.779,-667.912 833.92,-684.118 845.741,-685.482"/>
</g>
<!-- lu3 -->
<g id="node10" class="node"><title>lu3</title>
<a xlink:href="https://github.com/Open-UDC/open-udc/wiki/Desktop-GUI" xlink:title="Desktop GUI\nND\n0%" target="_top" >
<ellipse fill="white" stroke="white" stroke-width="2" cx="591" cy="-1048" rx="144.25" ry="79.9031"/>
<text text-anchor="middle" x="591" y="-1073.5" font-family="Times Roman,serif" font-size="30.00">Desktop GUI</text>
<text text-anchor="middle" x="591" y="-1038.5" font-family="Times Roman,serif" font-size="30.00">ND</text>
<text text-anchor="middle" x="591" y="-1003.5" font-family="Times Roman,serif" font-size="30.00">0%</text>
</a>
</g>
<!-- lu3&#45;&gt;lu2 -->
<g id="edge17" class="edge"><title>lu3&#45;&gt;lu2</title>
<path fill="none" stroke="#405764" stroke-width="3" d="M675.102,-966.425C697.192,-944.998 720.971,-921.934 742.9,-900.663"/>
<polygon fill="#405764" stroke="#405764" points="670.869,-962.241 662.809,-978.348 679.154,-970.783 670.869,-962.241"/>
<polygon fill="#405764" stroke="#405764" points="747.16,-904.821 755.22,-888.714 738.874,-896.279 747.16,-904.821"/>
</g>
<!-- cgi&#45;&gt;n1 -->
<g id="edge22" class="edge"><title>cgi&#45;&gt;n1</title>
<path fill="none" stroke="#405764" stroke-width="3" d="M1258.99,-758.973C1243.09,-750.237 1226.74,-741.648 1211,-734 1143.89,-701.397 1067.55,-669.708 1002.49,-644.23"/>
<polygon fill="#405764" stroke="#405764" points="1256.32,-764.296 1274.06,-767.368 1262.1,-753.899 1256.32,-764.296"/>
<polygon fill="#405764" stroke="#405764" points="1004.64,-638.682 986.644,-638.058 1000.33,-649.771 1004.64,-638.682"/>
</g>
</g>
</svg>
